<svg width="422" height="516" viewBox="0 0 422 516" fill="none" xmlns="http://www.w3.org/2000/svg">
<path d="M417 122V393H5V122H417Z" stroke="white" stroke-width="10"/>
<path d="M228.4 341.6H169.6V336.4L188.4 321.6V208L134.4 341.4H124.6L71 206.4V323.4L91.8 334.4L88.4 341.4H42.6V336.2L61.4 321.4V202.8L40.8 191L44.2 184H85L135.8 312.6L186.8 184H230.2V189.2L211.2 204V326.6L232 334.6L228.4 341.6Z" fill="white"/>
<path d="M308.6 182C322.067 182 334 185.333 344.4 192C354.8 198.533 362.8 207.667 368.4 219.4C374.133 231.133 377 244.4 377 259.2C377 274.4 372.6 288.467 363.8 301.4C355.133 314.2 344.333 324.4 331.4 332C318.467 339.467 306.133 343.2 294.4 343.2C288.133 343.2 281.867 342.867 275.6 342.2C265.2 341.533 257.2 341.2 251.6 341.2H227.6V336L246.4 321.2V197.6L225.8 190.8L229.2 183.8H251.4C263.933 183.8 276.333 183.4 288.6 182.6C297.667 182.067 304.333 181.8 308.6 181.8V182ZM300.2 329C310.067 329 319 326.4 327 321.2C335 315.867 341.267 308.6 345.8 299.4C350.467 290.2 352.8 279.867 352.8 268.4C352.8 254.667 350.6 242.133 346.2 230.8C341.933 219.467 335.333 210.467 326.4 203.8C317.467 197 306.4 193.6 293.2 193.6C284.4 193.6 276.333 196.2 269 201.4V323.8C277.667 327.4 288 329.2 300 329.2L300.2 329Z" fill="white"/>
<path d="M300.65 246.759L311.69 220L322.35 246.759L349 257.312L322.35 268.618L311.69 295L299.888 268.618L274 257.312L300.65 246.759Z" fill="white" stroke="white"/>
</svg>
